<?xml version="1.0" encoding="UTF-8"?>
<svg xmlns="http://www.w3.org/2000/svg" xmlns:xlink="http://www.w3.org/1999/xlink" width="45pt" height="45pt" viewBox="0 0 45 45" version="1.1">
<g id="surface1">
<path style=" stroke:none;fill-rule:nonzero;fill:rgb(83.137255%,61.960784%,42.352941%);fill-opacity:1;" d="M 31.585938 40.292969 C 31.414062 40.308594 31.242188 40.320312 31.0625 40.332031 C 31.242188 40.320312 31.414062 40.308594 31.585938 40.292969 Z M 31.585938 40.292969 "/>
<path style=" stroke:none;fill-rule:nonzero;fill:rgb(83.137255%,61.960784%,42.352941%);fill-opacity:1;" d="M 41.375 20.914062 C 40.421875 20.1875 39.164062 18.859375 37.703125 17.324219 C 37.125 16.71875 36.515625 16.066406 35.863281 15.398438 C 35.65625 15.191406 35.355469 15.128906 35.09375 15.238281 C 34.15625 15.636719 32.621094 15.234375 31.363281 14.273438 C 29.644531 12.953125 29.113281 11.253906 29.601562 10.4375 C 29.78125 10.136719 29.707031 9.746094 29.429688 9.53125 C 28.207031 8.578125 27.054688 7.769531 25.902344 7.0625 C 26.4375 7.390625 26.972656 7.746094 27.523438 8.121094 C 22.65625 7.578125 12.8125 9.128906 11.847656 16.660156 C 11.535156 19.046875 12.152344 21.914062 13.53125 24.828125 C 13.6875 24.804688 13.851562 24.773438 14.007812 24.753906 C 16.160156 24.5 18.011719 25.257812 18.164062 26.453125 C 18.269531 27.382812 17.3125 28.300781 15.871094 28.785156 C 19.609375 33.996094 25.667969 38.671875 33.15625 40.105469 C 32.648438 40.183594 32.128906 40.246094 31.601562 40.292969 C 36.214844 39.894531 40.328125 38.261719 42.351562 34.859375 C 43.617188 32.726562 47.289062 25.398438 41.375 20.914062 Z M 18.09375 19.589844 C 15.085938 18.796875 13.007812 16.785156 13.457031 15.105469 C 13.898438 13.421875 16.699219 12.703125 19.703125 13.5 C 22.710938 14.296875 24.785156 16.308594 24.339844 17.992188 C 23.894531 19.675781 21.097656 20.390625 18.09375 19.589844 Z M 25.570312 34.226562 C 23.25 34.132812 21.417969 32.945312 21.472656 31.566406 C 21.523438 30.175781 23.445312 29.132812 25.761719 29.214844 C 28.078125 29.308594 29.914062 30.492188 29.859375 31.878906 C 29.808594 33.261719 27.890625 34.308594 25.570312 34.226562 Z M 35.234375 24.53125 C 34.867188 25.46875 33.320312 25.738281 31.769531 25.132812 C 30.21875 24.527344 29.257812 23.273438 29.628906 22.332031 C 29.996094 21.390625 31.546875 21.125 33.101562 21.734375 C 34.648438 22.34375 35.605469 23.59375 35.234375 24.53125 Z M 39.027344 32.726562 C 37.851562 33.851562 36.363281 34.203125 35.707031 33.511719 C 35.042969 32.824219 35.460938 31.351562 36.632812 30.230469 C 37.8125 29.101562 39.296875 28.75 39.960938 29.4375 C 40.625 30.128906 40.203125 31.601562 39.027344 32.726562 Z M 39.027344 32.726562 "/>
<path style=" stroke:none;fill-rule:nonzero;fill:rgb(71.372549%,50.196078%,32.156863%);fill-opacity:1;" d="M 15.871094 28.785156 C 17.3125 28.300781 18.269531 27.382812 18.164062 26.453125 C 18.011719 25.257812 16.160156 24.5 14.007812 24.753906 C 13.851562 24.773438 13.6875 24.804688 13.53125 24.828125 C 12.152344 21.914062 11.535156 19.046875 11.847656 16.660156 C 12.8125 9.128906 22.652344 7.578125 27.523438 8.121094 C 26.972656 7.746094 26.4375 7.390625 25.902344 7.0625 C 18.566406 2.542969 12.765625 4.296875 8.058594 6.601562 C 0.828125 10.148438 -1.171875 19.699219 0.617188 26.890625 C 2.5 34.441406 11.148438 36.71875 19.511719 38.921875 L 20.816406 39.269531 C 23.488281 39.980469 26.414062 40.394531 29.257812 40.390625 C 29.425781 40.390625 29.59375 40.390625 29.757812 40.386719 C 29.914062 40.386719 30.058594 40.382812 30.210938 40.375 C 30.316406 40.371094 30.421875 40.367188 30.527344 40.363281 C 30.570312 40.363281 30.609375 40.359375 30.648438 40.359375 C 30.78125 40.351562 30.910156 40.34375 31.039062 40.335938 C 31.046875 40.335938 31.054688 40.332031 31.0625 40.332031 C 31.242188 40.320312 31.414062 40.308594 31.585938 40.292969 C 31.59375 40.292969 31.597656 40.292969 31.601562 40.292969 C 32.128906 40.246094 32.648438 40.183594 33.15625 40.105469 C 25.664062 38.671875 19.609375 33.996094 15.871094 28.785156 Z M 12.753906 7.335938 C 13.582031 6.988281 14.988281 6.851562 15.960938 7.269531 C 16.3125 7.421875 16.46875 7.835938 16.320312 8.1875 C 16.167969 8.539062 15.761719 8.703125 15.40625 8.550781 C 14.867188 8.3125 13.832031 8.394531 13.28125 8.625 C 13.191406 8.660156 13.105469 8.675781 13.015625 8.675781 C 12.738281 8.675781 12.480469 8.515625 12.371094 8.242188 C 12.226562 7.886719 12.390625 7.480469 12.753906 7.335938 Z M 1.984375 12.828125 C 2.574219 11.65625 3.304688 10.5625 4.167969 9.59375 C 5.214844 9.269531 6.300781 9.144531 7.285156 9.035156 C 8.410156 8.90625 9.472656 8.792969 10.234375 8.421875 C 10.578125 8.257812 10.996094 8.394531 11.160156 8.746094 C 11.332031 9.085938 11.1875 9.503906 10.839844 9.675781 C 9.859375 10.152344 8.6875 10.28125 7.445312 10.417969 C 5.355469 10.652344 3.199219 10.894531 1.984375 12.828125 Z M 10.066406 23.429688 C 10.035156 23.8125 9.695312 24.09375 9.320312 24.074219 C 8.785156 24.023438 8.523438 24.171875 8.359375 24.296875 C 8.234375 24.394531 8.085938 24.4375 7.9375 24.4375 C 7.730469 24.4375 7.519531 24.34375 7.382812 24.164062 C 7.144531 23.863281 7.207031 23.425781 7.515625 23.191406 C 8.039062 22.789062 8.660156 22.625 9.425781 22.679688 C 9.8125 22.710938 10.097656 23.046875 10.066406 23.429688 Z M 4.929688 17.097656 C 5.207031 15.167969 6.296875 13.734375 7.371094 13.886719 C 8.441406 14.035156 9.085938 15.71875 8.816406 17.648438 C 8.542969 19.578125 7.453125 21.015625 6.382812 20.867188 C 5.308594 20.707031 4.65625 19.023438 4.929688 17.097656 Z M 10.359375 30.121094 C 10.316406 30.480469 10.019531 30.742188 9.667969 30.742188 C 9.640625 30.742188 9.613281 30.742188 9.59375 30.738281 C 8.359375 30.613281 7.265625 29.929688 6.601562 28.871094 C 5.972656 27.878906 5.832031 26.691406 6.210938 25.617188 C 6.335938 25.25 6.742188 25.0625 7.101562 25.195312 C 7.460938 25.316406 7.652344 25.71875 7.523438 26.078125 C 7.285156 26.75 7.378906 27.492188 7.777344 28.128906 C 8.21875 28.820312 8.929688 29.265625 9.742188 29.355469 C 10.125 29.390625 10.402344 29.738281 10.359375 30.121094 Z M 10.382812 27.386719 C 10.253906 26.28125 11.628906 25.195312 13.535156 24.828125 C 14.160156 26.152344 14.945312 27.484375 15.878906 28.78125 C 15.460938 28.921875 15.007812 29.027344 14.527344 29.078125 C 12.382812 29.34375 10.523438 28.578125 10.382812 27.386719 Z M 21.742188 39.484375 C 21.277344 38.976562 20.894531 38.4375 20.53125 37.925781 C 19.855469 36.96875 19.277344 36.144531 18.289062 35.6875 C 17.023438 35.109375 15.289062 34.308594 14.992188 32.59375 C 14.933594 32.210938 15.183594 31.851562 15.566406 31.785156 C 15.949219 31.722656 16.304688 31.976562 16.371094 32.355469 C 16.539062 33.351562 17.832031 33.949219 18.871094 34.421875 C 20.195312 35.027344 20.949219 36.09375 21.671875 37.121094 C 22.558594 38.378906 23.398438 39.558594 25.296875 40.117188 C 25.308594 40.117188 25.3125 40.132812 25.324219 40.136719 C 24.109375 39.980469 22.910156 39.757812 21.742188 39.484375 Z M 21.742188 39.484375 "/>
<path style=" stroke:none;fill-rule:nonzero;fill:rgb(71.372549%,50.196078%,32.156863%);fill-opacity:1;" d="M 25.761719 29.214844 C 23.445312 29.132812 21.523438 30.175781 21.472656 31.566406 C 21.417969 32.949219 23.25 34.132812 25.578125 34.226562 C 27.890625 34.308594 29.808594 33.261719 29.867188 31.878906 C 29.914062 30.5 28.082031 29.308594 25.761719 29.214844 Z M 25.761719 29.214844 "/>
<path style=" stroke:none;fill-rule:nonzero;fill:rgb(71.372549%,50.196078%,32.156863%);fill-opacity:1;" d="M 33.101562 21.734375 C 31.546875 21.128906 29.996094 21.398438 29.628906 22.335938 C 29.261719 23.273438 30.21875 24.527344 31.769531 25.132812 C 33.320312 25.738281 34.871094 25.46875 35.234375 24.535156 C 35.605469 23.59375 34.648438 22.34375 33.101562 21.734375 Z M 33.101562 21.734375 "/>
<path style=" stroke:none;fill-rule:nonzero;fill:rgb(71.372549%,50.196078%,32.156863%);fill-opacity:1;" d="M 36.636719 30.230469 C 35.460938 31.351562 35.042969 32.824219 35.707031 33.511719 C 36.363281 34.203125 37.851562 33.851562 39.027344 32.726562 C 40.203125 31.601562 40.625 30.128906 39.960938 29.4375 C 39.296875 28.75 37.8125 29.097656 36.636719 30.230469 Z M 36.636719 30.230469 "/>
<path style=" stroke:none;fill-rule:nonzero;fill:rgb(61.568627%,41.176471%,23.529412%);fill-opacity:1;" d="M 8.816406 17.644531 C 9.085938 15.71875 8.441406 14.035156 7.371094 13.886719 C 6.296875 13.734375 5.207031 15.167969 4.929688 17.09375 C 4.65625 19.023438 5.308594 20.707031 6.382812 20.859375 C 7.453125 21.011719 8.542969 19.574219 8.816406 17.644531 Z M 8.816406 17.644531 "/>
<path style=" stroke:none;fill-rule:nonzero;fill:rgb(61.568627%,41.176471%,23.529412%);fill-opacity:1;" d="M 13.015625 8.675781 C 13.105469 8.675781 13.191406 8.660156 13.28125 8.625 C 13.832031 8.394531 14.867188 8.3125 15.40625 8.550781 C 15.761719 8.703125 16.167969 8.539062 16.320312 8.1875 C 16.46875 7.835938 16.3125 7.421875 15.960938 7.269531 C 14.988281 6.851562 13.582031 6.988281 12.753906 7.335938 C 12.390625 7.480469 12.226562 7.886719 12.371094 8.242188 C 12.480469 8.515625 12.738281 8.675781 13.015625 8.675781 Z M 13.015625 8.675781 "/>
<path style=" stroke:none;fill-rule:nonzero;fill:rgb(61.568627%,41.176471%,23.529412%);fill-opacity:1;" d="M 9.742188 29.355469 C 8.933594 29.265625 8.21875 28.824219 7.777344 28.128906 C 7.378906 27.492188 7.285156 26.75 7.523438 26.078125 C 7.652344 25.71875 7.460938 25.316406 7.101562 25.195312 C 6.742188 25.0625 6.335938 25.25 6.210938 25.617188 C 5.832031 26.691406 5.972656 27.878906 6.601562 28.871094 C 7.265625 29.929688 8.359375 30.613281 9.59375 30.738281 C 9.613281 30.742188 9.640625 30.742188 9.667969 30.742188 C 10.019531 30.742188 10.316406 30.476562 10.359375 30.121094 C 10.402344 29.738281 10.125 29.390625 9.742188 29.355469 Z M 9.742188 29.355469 "/>
<path style=" stroke:none;fill-rule:nonzero;fill:rgb(61.568627%,41.176471%,23.529412%);fill-opacity:1;" d="M 7.515625 23.191406 C 7.207031 23.425781 7.144531 23.867188 7.382812 24.171875 C 7.519531 24.34375 7.730469 24.441406 7.9375 24.441406 C 8.085938 24.441406 8.234375 24.394531 8.359375 24.296875 C 8.523438 24.171875 8.785156 24.023438 9.320312 24.074219 C 9.695312 24.09375 10.035156 23.8125 10.066406 23.429688 C 10.097656 23.046875 9.8125 22.710938 9.425781 22.679688 C 8.660156 22.625 8.039062 22.789062 7.515625 23.191406 Z M 7.515625 23.191406 "/>
<path style=" stroke:none;fill-rule:nonzero;fill:rgb(61.568627%,41.176471%,23.529412%);fill-opacity:1;" d="M 13.535156 24.828125 C 11.628906 25.195312 10.253906 26.28125 10.382812 27.386719 C 10.523438 28.578125 12.382812 29.34375 14.527344 29.078125 C 15.007812 29.027344 15.460938 28.921875 15.878906 28.78125 C 14.945312 27.484375 14.160156 26.152344 13.535156 24.828125 Z M 13.535156 24.828125 "/>
<path style=" stroke:none;fill-rule:nonzero;fill:rgb(71.372549%,50.196078%,32.156863%);fill-opacity:1;" d="M 24.339844 17.992188 C 24.785156 16.308594 22.710938 14.296875 19.703125 13.5 C 16.699219 12.703125 13.898438 13.421875 13.457031 15.105469 C 13.007812 16.785156 15.085938 18.796875 18.09375 19.589844 C 21.097656 20.390625 23.894531 19.675781 24.339844 17.992188 Z M 24.339844 17.992188 "/>
<path style=" stroke:none;fill-rule:nonzero;fill:rgb(61.568627%,41.176471%,23.529412%);fill-opacity:1;" d="M 10.839844 9.675781 C 11.1875 9.503906 11.332031 9.085938 11.160156 8.746094 C 10.996094 8.394531 10.578125 8.257812 10.234375 8.421875 C 9.472656 8.789062 8.410156 8.90625 7.285156 9.035156 C 6.300781 9.144531 5.214844 9.269531 4.167969 9.59375 C 3.304688 10.5625 2.574219 11.65625 1.984375 12.828125 C 3.199219 10.894531 5.355469 10.652344 7.445312 10.417969 C 8.6875 10.28125 9.859375 10.152344 10.839844 9.675781 Z M 10.839844 9.675781 "/>
<path style=" stroke:none;fill-rule:nonzero;fill:rgb(61.568627%,41.176471%,23.529412%);fill-opacity:1;" d="M 21.671875 37.121094 C 20.949219 36.09375 20.195312 35.027344 18.871094 34.421875 C 17.832031 33.949219 16.539062 33.351562 16.371094 32.355469 C 16.304688 31.976562 15.949219 31.722656 15.566406 31.785156 C 15.183594 31.851562 14.933594 32.210938 14.992188 32.59375 C 15.289062 34.308594 17.023438 35.109375 18.289062 35.6875 C 19.277344 36.144531 19.855469 36.96875 20.53125 37.925781 C 20.894531 38.4375 21.277344 38.976562 21.742188 39.484375 C 22.910156 39.757812 24.109375 39.980469 25.324219 40.136719 C 25.3125 40.132812 25.308594 40.117188 25.296875 40.117188 C 23.398438 39.558594 22.558594 38.378906 21.671875 37.121094 Z M 21.671875 37.121094 "/>
</g>
</svg>
